<svg width="26" height="50" viewBox="0 0 26 50" fill="none" xmlns="http://www.w3.org/2000/svg">
<path d="M12.089 49L12.9955 25.3115L13 25.3153L13.0045 25.3115L13.911 49H12.089ZM25 24.3951L15.0062 23.6011L15.0297 23.581L25 22.7436V23.5669V24.3951ZM17.4565 17.3407L13.898 21.9173L13 22.6847L12.102 21.9173L8.54354 17.3407C7.56643 16.084 6.80589 14.673 6.29324 13.166L5.89482 11.9948C5.46706 10.7373 5.32719 9.39975 5.48552 8.08096L5.56759 7.39739C5.73757 5.98154 6.35151 4.65587 7.32137 3.61045C8.1955 2.66823 9.32042 1.99509 10.5639 1.67015L10.9061 1.58074C12.2715 1.22395 13.7071 1.23644 15.0661 1.61691L15.2468 1.66751C16.4189 1.99565 17.4891 2.6143 18.3584 3.46615C19.5336 4.6177 20.2809 6.13557 20.477 7.76916L20.5267 8.18313C20.677 9.43466 20.5443 10.704 20.1383 11.8973L19.7068 13.166C19.1941 14.673 18.4336 16.084 17.4565 17.3407ZM10.9938 23.6011L1 24.3951V22.7436L10.9703 23.581L10.9938 23.6011Z" fill="url(#paint0_linear_3_17)" stroke="#646C77" stroke-width="2"/>
<defs>
<linearGradient id="paint0_linear_3_17" x1="13" y1="0" x2="13" y2="50" gradientUnits="userSpaceOnUse">
<stop offset="0.447817" stop-color="#646C77" stop-opacity="0"/>
<stop offset="0.447917" stop-color="#646C77"/>
</linearGradient>
</defs>
</svg>
