<svg width="26" height="31" viewBox="0 0 26 31" fill="none" xmlns="http://www.w3.org/2000/svg">
<path d="M1 21.9723C2.09748 21.9723 3.05022 22.7666 3.29926 23.8892L3.36187 24.1713C3.64758 25.4591 4.74058 26.3703 5.99963 26.3703H8.83677M8.83677 26.3703V31M8.83677 26.3703V25.5287C8.83677 24.0635 9.23971 22.6294 9.99715 21.3988C10.1316 21.1805 10.0352 20.8874 9.80094 20.8029L7.07615 19.8192C5.0212 19.0773 3.35944 17.4596 2.4994 15.3637C1.55374 13.0594 1.6781 10.4248 2.83615 8.22986L3.78291 6.43545C3.82588 6.35399 3.83814 6.25855 3.81725 6.16804L3.69385 5.63346C3.33853 4.09413 3.60099 2.46908 4.41976 1.13893C4.50057 1.00765 4.66302 0.962188 4.7953 1.03382L8.60166 3.09507C8.75424 3.17769 8.92827 3.20586 9.09746 3.17532C11.7539 2.69581 14.4913 2.69987 17.1477 3.17937C17.3022 3.20726 17.4624 3.18678 17.6057 3.12007L22.0541 1.04881C22.2247 0.969422 22.4245 1.04298 22.5106 1.21676C23.1563 2.5211 23.3976 4.00492 23.2003 5.46042L23.1065 6.15307C23.0928 6.25429 23.1099 6.35747 23.1553 6.44792L24.1042 8.33915C25.1763 10.4756 25.2918 13.0011 24.4198 15.2355C23.5717 17.4086 21.873 19.0921 19.7585 19.8554L17.2143 20.774C16.914 20.8823 16.7518 21.2233 16.8494 21.5407C17.2049 22.6958 17.386 23.9022 17.386 25.1161V25.5988V31" stroke="#646C77" stroke-width="2"/>
</svg>
