<?xml version="1.0" encoding="UTF-8"?>
<svg xmlns="http://www.w3.org/2000/svg" xmlns:xlink="http://www.w3.org/1999/xlink" viewBox="0 0 50 50" width="50px" height="50px">
<g id="surface80999721">
<path style="fill-rule:nonzero;fill:rgb(41.176471%,45.882353%,50.980395%);fill-opacity:1;stroke-width:5;stroke-linecap:butt;stroke-linejoin:round;stroke:rgb(41.176471%,45.882353%,50.980395%);stroke-opacity:1;stroke-miterlimit:10;" d="M 116.953253 10.324203 C 141.616319 10.324203 161.675797 30.38368 161.675797 55.046746 L 161.675797 116.953253 C 161.675797 141.616319 141.616319 161.675797 116.953253 161.675797 L 55.046746 161.675797 C 30.38368 161.675797 10.324203 141.616319 10.324203 116.953253 L 10.324203 55.046746 C 10.324203 30.38368 30.38368 10.324203 55.046746 10.324203 Z M 17.195023 55.046746 L 17.195023 116.953253 C 17.195023 137.897505 34.102495 154.804976 55.046746 154.804976 L 116.953253 154.804976 C 137.897505 154.804976 154.804976 137.897505 154.804976 116.953253 L 154.804976 55.046746 C 154.804976 34.102495 137.897505 17.195023 116.953253 17.195023 L 55.046746 17.195023 C 34.102495 17.195023 17.195023 34.102495 17.195023 55.046746 Z M 134.164866 44.719779 C 134.164866 48.521541 131.081983 51.604424 127.280221 51.604424 C 123.478459 51.604424 120.395576 48.521541 120.395576 44.719779 C 120.395576 40.918017 123.478459 37.835134 127.280221 37.835134 C 131.081983 37.835134 134.164866 40.918017 134.164866 44.719779 Z M 123.837898 86 C 123.837898 106.861304 106.861304 123.837898 86 123.837898 C 65.138696 123.837898 48.162101 106.861304 48.162101 86 C 48.162101 65.138696 65.138696 48.162101 86 48.162101 C 106.861304 48.162101 123.837898 65.138696 123.837898 86 Z M 55.046746 86 C 55.046746 103.142489 68.85751 116.953253 86 116.953253 C 103.142489 116.953253 116.953253 103.142489 116.953253 86 C 116.953253 68.85751 103.142489 55.046746 86 55.046746 C 68.85751 55.046746 55.046746 68.85751 55.046746 86 Z M 55.046746 86 " transform="matrix(0.282558,0,0,0.282558,0.7,0.7)"/>
<path style=" stroke:none;fill-rule:nonzero;fill:rgb(41.176471%,45.882353%,50.980395%);fill-opacity:1;" d="M 16.253906 3.617188 C 9.285156 3.617188 3.617188 9.285156 3.617188 16.253906 L 3.617188 33.746094 C 3.617188 40.714844 9.285156 46.382812 16.253906 46.382812 L 33.746094 46.382812 C 40.714844 46.382812 46.382812 40.714844 46.382812 33.746094 L 46.382812 16.253906 C 46.382812 9.285156 40.714844 3.617188 33.746094 3.617188 Z M 16.253906 5.558594 L 33.746094 5.558594 C 39.664062 5.558594 44.441406 10.335938 44.441406 16.253906 L 44.441406 33.746094 C 44.441406 39.664062 39.664062 44.441406 33.746094 44.441406 L 16.253906 44.441406 C 10.335938 44.441406 5.558594 39.664062 5.558594 33.746094 L 5.558594 16.253906 C 5.558594 10.335938 10.335938 5.558594 16.253906 5.558594 Z M 36.664062 11.390625 C 35.589844 11.390625 34.71875 12.261719 34.71875 13.335938 C 34.71875 14.410156 35.589844 15.28125 36.664062 15.28125 C 37.738281 15.28125 38.609375 14.410156 38.609375 13.335938 C 38.609375 12.261719 37.738281 11.390625 36.664062 11.390625 Z M 25 14.308594 C 19.105469 14.308594 14.308594 19.105469 14.308594 25 C 14.308594 30.894531 19.105469 35.691406 25 35.691406 C 30.894531 35.691406 35.691406 30.894531 35.691406 25 C 35.691406 19.105469 30.894531 14.308594 25 14.308594 Z M 25 16.253906 C 29.84375 16.253906 33.746094 20.15625 33.746094 25 C 33.746094 29.84375 29.84375 33.746094 25 33.746094 C 20.15625 33.746094 16.253906 29.84375 16.253906 25 C 16.253906 20.15625 20.15625 16.253906 25 16.253906 Z M 25 16.253906 "/>
</g>
</svg>
