<svg width="30" height="30" viewBox="0 0 30 30" fill="none" xmlns="http://www.w3.org/2000/svg">
<path d="M6.98323 9.65129H0.960678C0.693387 9.65129 0.476807 9.86797 0.476807 10.1352V29.483C0.476807 29.7503 0.693387 29.9669 0.960678 29.9669H6.98323C7.25052 29.9669 7.4671 29.7503 7.4671 29.483V10.1352C7.4671 9.86797 7.25052 9.65129 6.98323 9.65129Z" fill="#646C77"/>
<path d="M3.97413 0.0330048C1.78277 0.0330048 0 1.81384 0 4.00278C0 6.19268 1.78277 7.9742 3.97413 7.9742C6.16374 7.9742 7.94507 6.19259 7.94507 4.00278C7.94516 1.81384 6.16374 0.0330048 3.97413 0.0330048Z" fill="#646C77"/>
<path d="M22.302 9.17043C19.8831 9.17043 18.095 10.2103 17.0105 11.3918V10.1352C17.0105 9.86797 16.7939 9.6513 16.5266 9.6513H10.759C10.4917 9.6513 10.2751 9.86797 10.2751 10.1352V29.483C10.2751 29.7503 10.4917 29.9669 10.759 29.9669H16.7683C17.0356 29.9669 17.2522 29.7503 17.2522 29.483V19.9103C17.2522 16.6846 18.1284 15.4278 20.3771 15.4278C22.826 15.4278 23.0206 17.4425 23.0206 20.0763V29.4831C23.0206 29.7504 23.2372 29.967 23.5045 29.967H29.5161C29.7834 29.967 30 29.7504 30 29.4831V18.8705C30 14.0739 29.0854 9.17043 22.302 9.17043Z" fill="#646C77"/>
</svg>
