<svg width="40" height="50" viewBox="0 0 40 50" fill="none" xmlns="http://www.w3.org/2000/svg">
<path d="M17.4937 0.0221634C12.1968 0.338737 7.73199 2.07011 4.46246 5.08733C3.28277 6.17383 2.21637 7.54565 1.38433 9.03862C0.657772 10.3518 0.294491 11.3172 0.130428 12.3919C-0.236759 14.8151 0.189022 18.5749 1.18512 21.6742L1.40387 22.362L1.70465 22.5965C1.86871 22.7255 2.1109 22.9678 2.24371 23.132C2.69683 23.6948 2.9234 24.152 3.46637 25.602C3.77887 26.4267 3.79058 26.4775 3.81012 26.8527C3.84527 27.6148 3.6734 28.3808 3.05621 30.2529C2.43121 32.1445 2.39215 32.3399 2.45465 33.2427C2.56402 34.8412 2.93902 35.4666 3.85699 35.5877C4.01715 35.6073 4.38824 35.6229 4.6773 35.6229C5.53277 35.6229 6.04058 35.4939 6.26324 35.2203C6.44293 35.0054 6.72027 34.9468 7.58746 34.9468C8.54058 34.9429 9.3023 35.064 10.0093 35.3337C10.8062 35.6307 11.2945 36.1388 11.3765 36.7446C11.4 36.9166 11.3882 36.9752 11.3023 37.1471C11.1617 37.4207 11.0757 37.8233 11.107 38.0343C11.1617 38.4095 11.4468 38.6323 11.9078 38.6675L12.1773 38.687L12.2554 38.5111C12.2945 38.4173 12.357 38.1555 12.3921 37.9288C12.5289 37.0416 12.6265 36.7954 12.9 36.6664C13.0289 36.6039 13.0601 36.6039 13.189 36.6508C13.3101 36.6977 13.3375 36.729 13.3804 36.897C13.4078 37.0064 13.4429 37.3426 13.4546 37.6474L13.4781 38.2024L13.3296 38.5072C13.2203 38.7339 13.1773 38.8785 13.1656 39.0739C13.1343 39.453 13.1734 39.496 13.65 39.6289C13.9507 39.711 14.1109 39.7852 14.3961 39.9689C14.9351 40.3207 15.0992 40.3793 15.482 40.3598C15.6539 40.352 15.6929 40.2386 15.7359 39.6328C15.814 38.5737 15.8648 38.3548 16.0601 38.2219C16.189 38.1399 16.3804 38.1399 16.4742 38.2258C16.6148 38.3509 16.6421 38.5346 16.6148 39.0896C16.5875 39.5742 16.5914 39.6211 16.6734 39.7774C16.9586 40.348 17.5406 40.5044 18.1617 40.1722C18.5796 39.9494 18.65 39.7852 18.7359 38.8512C18.8257 37.8975 18.8687 37.5614 18.9039 37.4872C18.9429 37.4168 18.9429 37.4168 19.0132 37.4872C19.0914 37.5692 19.2203 37.9366 19.2945 38.2845C19.3218 38.433 19.357 38.5033 19.3882 38.4916C19.4859 38.4564 19.7945 39.3671 19.8531 39.8712C19.8921 40.1878 19.9468 40.2621 20.2125 40.3402C20.6461 40.4653 21.3492 40.3285 21.6656 40.0549C21.9351 39.8243 21.9976 39.5898 21.8804 39.2459C21.8453 39.1404 21.8296 39.0466 21.8492 39.027C21.8687 39.0075 21.9781 39.027 22.0992 39.0739C22.2164 39.1169 22.3453 39.156 22.3843 39.156C22.4312 39.1599 22.4937 39.2342 22.5562 39.3553C22.6109 39.4648 22.7554 39.6485 22.8765 39.7696C23.1421 40.0354 23.4781 40.18 23.8257 40.18C24.0171 40.18 24.064 40.1644 24.1656 40.0666C24.3843 39.8556 24.4156 39.6914 24.4273 38.6948C24.4351 37.9093 24.4468 37.7647 24.5171 37.538C24.65 37.1198 24.9351 36.7993 25.1812 36.7993C25.3257 36.7993 25.5132 37.0299 25.5914 37.3035C25.6265 37.4364 25.6734 37.7842 25.6929 38.0812C25.7515 38.984 25.9078 39.2928 26.3765 39.4374C27.0093 39.6328 27.9625 38.9254 28.0601 38.1907C28.0796 38.0656 28.0484 37.8936 27.9429 37.5145C27.7789 36.9166 27.7711 36.7329 27.8961 36.4671C28.3336 35.5604 29.5796 34.8295 31.1773 34.5481C31.4078 34.509 31.5523 34.5051 31.7281 34.5325C32.0445 34.5833 32.1304 34.6146 32.8414 34.9311C33.1734 35.0836 33.5836 35.2399 33.7554 35.2829C34.15 35.3845 34.314 35.3532 34.9859 35.0601C35.8179 34.6927 36.1773 34.4426 36.3218 34.1221C36.4273 33.8954 36.4156 33.786 36.2203 33.2232C35.9546 32.4533 35.6343 31.3746 35.482 30.7414C35.232 29.6901 35.2086 29.479 35.2046 28.4746C35.2046 27.6695 35.2164 27.5093 35.2906 27.1653C35.4195 26.5791 35.6226 25.9616 35.8218 25.5434C35.9195 25.3402 36.1148 24.8204 36.2554 24.3943C36.4 23.9644 36.5757 23.5033 36.65 23.3704C36.857 23.003 37.1343 22.7255 37.6226 22.4011C38.6382 21.725 39.2398 20.7987 39.6187 19.3175C40.0836 17.504 40.107 15.0418 39.6929 12.3333C39.5562 11.4383 39.3961 10.77 39.232 10.387C37.9078 7.30724 35.1851 4.69258 31.3179 2.78143C28.3101 1.29627 25.0914 0.424717 21.3375 0.0807877C20.5523 0.00653076 18.3023 -0.0247383 17.4937 0.0221634ZM11.3961 19.6067C12.0093 19.6614 12.4468 19.7396 13.0093 19.8959C13.6539 20.0718 14.1109 20.275 14.814 20.6971C16.15 21.5022 16.8453 22.1119 17.1656 22.7607C17.2945 23.0186 17.3101 23.0772 17.3062 23.3469C17.3023 23.9136 17.0445 24.3983 16.2789 25.2659C15.4351 26.2312 14.2867 26.9152 12.9468 27.2591C12.3765 27.4076 11.8414 27.4663 11.1031 27.4624C9.59137 27.4585 8.22027 27.1341 7.4234 26.5947C6.29058 25.8248 5.65387 24.4061 5.77496 22.9014C5.90387 21.2599 6.81012 20.0405 8.18512 19.6731C8.66168 19.548 10.3414 19.5129 11.3961 19.6067ZM30.6539 19.6106C31.0445 19.6575 31.4937 19.8099 31.814 19.9975C32.1461 20.1929 32.6695 20.7323 32.8882 21.1114C33.1109 21.4905 33.3257 22.1158 33.3921 22.5692C33.4625 23.0616 33.4195 23.8706 33.2984 24.3396C32.939 25.7193 31.9976 26.7002 30.6656 27.0872C28.9664 27.5835 27.1187 27.5835 25.6539 27.0833C25.1851 26.923 24.3765 26.5048 23.9781 26.2195C23.3375 25.7583 22.5836 24.961 22.2164 24.3553C21.5367 23.2336 21.8687 22.4207 23.4859 21.2638C24.8023 20.3258 25.8765 19.8568 27.1656 19.6614C28.0054 19.5324 29.8375 19.5051 30.6539 19.6106ZM20.3101 26.1726C20.3921 26.1922 20.5015 26.2508 20.5562 26.2977C20.7437 26.4657 22.8726 30.2099 22.982 30.5656C23.0796 30.886 23.0914 31.2065 23.0093 31.3668C22.8101 31.7537 22.2086 31.8201 21.6031 31.5231C21.3453 31.398 21.2515 31.2769 20.9859 30.7414C20.9273 30.6242 20.8336 30.4679 20.7828 30.4014C20.5562 30.1083 19.9586 29.9637 19.5054 30.0927C19.2125 30.1786 19.0054 30.3858 18.7828 30.8157C18.482 31.3941 18.1851 31.6286 17.6421 31.7146C17.3648 31.7615 17.0523 31.7146 16.9039 31.6091C16.7632 31.5075 16.6695 31.2964 16.6695 31.0893C16.6695 30.6906 16.8414 30.3272 17.9 28.4746C19.0796 26.4149 19.189 26.2508 19.4546 26.1726C19.6265 26.1218 20.1343 26.1218 20.3101 26.1726Z" fill="#646C77"/>
<path d="M8.57964 35.9395C8.45074 36.0137 8.34136 36.3655 8.31402 36.7993C8.25542 37.7451 8.41167 38.9958 8.72417 40.0823C8.93511 40.817 8.93902 40.8718 8.97417 42.6227C8.99371 43.5372 9.02496 44.44 9.04839 44.6355C9.21246 45.933 9.61089 46.5075 10.5289 46.7459C10.6656 46.7811 11.0015 46.8319 11.271 46.8593L11.7671 46.9062L13.3101 47.4963C14.1578 47.8207 14.9507 48.106 15.0679 48.1334C15.7867 48.3014 16.5757 48.661 17.4312 49.2121C18.1031 49.6459 18.3921 49.7866 18.814 49.896C19.4273 50.0524 20.6851 50.0289 21.3882 49.8491C21.5523 49.8061 21.8492 49.685 22.0562 49.5716C22.7437 49.1964 22.9312 49.1144 23.2125 49.0714C23.8921 48.9619 24.0093 48.9385 24.2867 48.8486C24.8765 48.6571 25.4468 48.2233 25.7984 47.6878C26.0171 47.3556 27.0601 46.1362 27.3023 45.9291C27.6578 45.6243 28.0484 45.4562 28.7828 45.2999C29.1578 45.2217 29.2398 45.1865 29.6617 44.9286C30.1734 44.6198 30.4234 44.4049 30.5484 44.1665C30.6617 43.9554 30.6578 43.5294 30.5406 43.1308C30.3531 42.4781 30.3296 42.1654 30.3023 39.6328C30.275 37.1432 30.2671 37.0729 30.0992 36.7407C29.8687 36.299 29.4781 36.3381 29.1539 36.8345C28.9585 37.1315 28.8648 37.4559 28.5484 38.9606C28.396 39.6875 28.2398 40.3402 28.2085 40.4067C27.9273 40.9577 27.4937 41.1219 26.9976 40.86C26.8726 40.7936 26.7046 40.7076 26.6226 40.6646C26.2945 40.4966 25.8765 40.3832 25.5484 40.3793C25.2554 40.3754 25.2164 40.3832 25.0601 40.4927C24.9468 40.5708 24.857 40.6802 24.7828 40.8288C24.6695 41.0554 24.564 41.5362 24.5601 41.8371C24.5601 41.9934 24.5523 42.0052 24.4742 41.9856C24.4234 41.9739 24.2515 41.9504 24.0914 41.9387C23.689 41.9035 23.6109 41.8645 23.4195 41.6104C23.3296 41.4893 23.2203 41.3603 23.1734 41.3251C23.0601 41.2274 22.5718 41.1219 22.4 41.1532C22.2164 41.1883 22.0523 41.3564 21.9664 41.5948C21.8296 41.9778 21.8492 41.9583 21.6226 41.9583C21.5093 41.9583 21.2984 41.97 21.1578 41.9817L20.9 42.0091L20.8492 41.798C20.7242 41.2821 20.6656 41.2235 20.3335 41.2978C20.064 41.3564 19.9507 41.4424 19.9507 41.5792C19.9507 41.7589 19.8648 41.8176 19.5679 41.8332L19.2984 41.8488L18.9859 41.5323C18.275 40.8092 17.5835 40.8053 17.1578 41.5205C17.0328 41.7316 17.064 41.7199 16.525 41.7863L16.3257 41.8097L16.2476 41.6612C16.146 41.4619 15.9078 41.2352 15.7242 41.1571C15.2945 40.9812 14.9468 41.2352 14.8257 41.8176L14.775 42.0482L14.4625 42.0208C14.2906 42.0091 14.0953 41.9973 14.025 41.9973C13.9156 41.9973 13.896 41.9778 13.8453 41.8293C13.8101 41.7394 13.775 41.5166 13.7632 41.3368C13.7515 41.1414 13.7164 40.9734 13.6812 40.9187C13.5875 40.778 13.3375 40.6685 13.0054 40.6294C12.8414 40.6099 12.564 40.5747 12.3921 40.5552L12.0796 40.5161L11.939 40.6685C11.7593 40.8678 11.6343 40.8952 11.4585 40.7897C11.3257 40.7076 10.4703 39.7579 10.3296 39.5351C10.2359 39.3866 10.1265 38.9215 10.0093 38.1672C9.8648 37.2136 9.75542 36.9126 9.37652 36.3772C9.09527 35.9786 8.79449 35.8144 8.57964 35.9395Z" fill="#646C77"/>
</svg>
