<svg width="43" height="41" viewBox="0 0 43 41" fill="none" xmlns="http://www.w3.org/2000/svg">
<path d="M14.5 13L19.6876 1.88364C20.4058 0.344669 22.5942 0.34467 23.3124 1.88364L28.5 13L40.5676 14.4627C42.2825 14.6706 42.945 16.8084 41.6481 17.9496L32.5 26L34.7308 37.8973C35.0402 39.5478 33.3008 40.8219 31.8206 40.0289L21.5 34.5L11.1794 40.0289C9.6992 40.8219 7.95978 39.5478 8.26925 37.8973L10.5 26L1.35185 17.9496C0.0550141 16.8084 0.717527 14.6706 2.43245 14.4627L14.5 13Z" fill="#724A00"/>
<path d="M14.5 13L19.6876 1.88364C20.4058 0.344669 22.5942 0.34467 23.3124 1.88364L28.5 13L40.5676 14.4627C42.2825 14.6706 42.945 16.8084 41.6481 17.9496L32.5 26L34.7308 37.8973C35.0402 39.5478 33.3008 40.8219 31.8206 40.0289L21.5 34.5L11.1794 40.0289C9.6992 40.8219 7.95978 39.5478 8.26925 37.8973L10.5 26L1.35185 17.9496C0.0550141 16.8084 0.717527 14.6706 2.43245 14.4627L14.5 13Z" fill="url(#paint0_linear_8_5)"/>
<defs>
<linearGradient id="paint0_linear_8_5" x1="-22.5" y1="42" x2="64.5" y2="42" gradientUnits="userSpaceOnUse">
<stop offset="0.505108" stop-color="#FFBF00"/>
<stop offset="0.505208" stop-color="#FFBF00" stop-opacity="0"/>
</linearGradient>
</defs>
</svg>
