<svg width="24" height="19" viewBox="0 0 24 19" fill="none" xmlns="http://www.w3.org/2000/svg">
<path d="M1 17V5.51724C1 4.96496 1.44772 4.51724 2 4.51724H5.54117C5.89723 4.51724 6.22644 4.32791 6.40551 4.02016L8.16279 1H15.3256L17.5842 4.10543C17.7724 4.36417 18.073 4.51724 18.3929 4.51724H22C22.5523 4.51724 23 4.96496 23 5.51724V17C23 17.5523 22.5523 18 22 18H2C1.44772 18 1 17.5523 1 17Z" stroke="black"/>
<path d="M16 11V10.5C16 8.29086 14.2091 6.5 12 6.5C9.79086 6.5 8 8.29086 8 10.5V11C8 13.2091 9.79086 15 12 15C14.2091 15 16 13.2091 16 11Z" stroke="black"/>
</svg>
