<svg width="33" height="33" fill="none" xmlns="http://www.w3.org/2000/svg"><path d="M25.867 22.302c-8.743 0-14.233-5.264-14.233-13.7 0-2.363.475-4.523 1.085-5.602.203-.473.27-.675.27-1.013 0-.54-.474-1.147-1.151-1.147-.136 0-.475 0-.881.202a16.588 16.588 0 0 0-7.3 6.097 16.485 16.485 0 0 0-2.731 9.089c-.076 2.2.304 4.393 1.115 6.441a16.057 16.057 0 0 0 3.6 5.466 16.138 16.138 0 0 0 5.489 3.585 16.19 16.19 0 0 0 6.469 1.11c6.913 0 12.47-3.577 15.114-9.516l.203-.945c0-.674-.61-1.08-1.084-1.08a2.041 2.041 0 0 0-.814.135c-1.355.54-3.253.878-5.15.878zM3.433 16.16c0-4.927 2.576-9.65 6.71-12.148-.542 1.35-.813 3.037-.813 4.86 0 9.853 6.1 15.725 16.199 15.725 1.626 0 3.05-.135 4.337-.675a14.075 14.075 0 0 1-5.247 4.83 14.146 14.146 0 0 1-6.953 1.649c-8.2-.068-14.233-6.142-14.233-14.24z" fill="#F5F7FA" fill-opacity=".98"/></svg>