<svg width="23" height="26" viewBox="0 0 23 26" fill="none" xmlns="http://www.w3.org/2000/svg">
<path d="M0.864865 18.5V18.5C1.82245 18.5 2.65375 19.1599 2.87105 20.0925L2.92568 20.3269C3.17497 21.3968 4.12865 22.1538 5.22721 22.1538H7.70271M7.70271 22.1538V26M7.70271 22.1538V21.4546C7.70271 20.2373 8.05429 19.0459 8.71518 18.0236V18.0236C8.8325 17.8422 8.74834 17.5987 8.54398 17.5285L6.16651 16.7113C4.3735 16.0949 2.92356 14.751 2.17314 13.0098V13.0098C1.34802 11.0954 1.45653 8.90663 2.46697 7.08316L3.29305 5.59241C3.33054 5.52474 3.34124 5.44545 3.32301 5.37026L3.21534 4.92614C2.90531 3.64731 3.13432 2.29726 3.84872 1.1922V1.1922C3.91923 1.08314 4.06097 1.04537 4.17639 1.10488L7.49757 2.81731C7.6307 2.88595 7.78255 2.90935 7.93017 2.88398V2.88398C10.248 2.48562 12.6365 2.48899 14.9543 2.88735V2.88735C15.0891 2.91052 15.2289 2.8935 15.3539 2.83808L19.2353 1.11733C19.3841 1.05138 19.5585 1.11249 19.6336 1.25686V1.25686C20.197 2.34047 20.4075 3.57319 20.2354 4.78238L20.1535 5.35782C20.1416 5.44191 20.1565 5.52763 20.1961 5.60277L21.0241 7.17396C21.9595 8.94883 22.0603 11.047 21.2994 12.9033V12.9033C20.5594 14.7086 19.0773 16.1072 17.2323 16.7414L15.0124 17.5045C14.7504 17.5945 14.6088 17.8778 14.694 18.1415V18.1415C15.0042 19.1011 15.1622 20.1033 15.1622 21.1118V21.5128V26" stroke="black"/>
</svg>
