<svg width="33" height="33" fill="none" xmlns="http://www.w3.org/2000/svg"><path d="M17.675 1.582c0-.63-.569-1.26-1.264-1.26-.336 0-.658.133-.895.37-.237.236-.37.556-.37.89v3.15c0 .63.569 1.26 1.265 1.26.695 0 1.264-.63 1.264-1.26v-3.15zm6.072 5.67a1.257 1.257 0 0 0 0 1.763c.506.504 1.264.504 1.834 0l2.213-2.142a1.258 1.258 0 0 0 0-1.826 1.264 1.264 0 0 0-1.469-.315c-.163.073-.31.18-.428.315l-2.15 2.204zM7.304 9.014c.443.504 1.265.504 1.77 0 .507-.44.507-1.26 0-1.827l-2.15-2.204c-.442-.441-1.264-.504-1.834 0-.442.504-.442 1.323 0 1.89l2.214 2.141zm9.107-.252a7.604 7.604 0 0 0-5.367 2.214 7.544 7.544 0 0 0-2.222 5.345c0 2.005.8 3.928 2.223 5.345a7.604 7.604 0 0 0 5.366 2.214 7.604 7.604 0 0 0 5.366-2.214A7.544 7.544 0 0 0 24 16.322c0-2.004-.8-3.927-2.223-5.345a7.604 7.604 0 0 0-5.366-2.214zm0 2.268c2.909 0 5.312 2.394 5.312 5.291 0 2.898-2.403 5.292-5.312 5.292a5.386 5.386 0 0 1-3.739-1.568 5.344 5.344 0 0 1-1.574-3.724c0-2.897 2.404-5.291 5.313-5.291zm14.735 6.551c.695 0 1.265-.567 1.265-1.26 0-.693-.57-1.26-1.265-1.26h-3.099c-.335 0-.657.133-.894.37-.238.236-.37.556-.37.89 0 .693.632 1.26 1.264 1.26h3.099zm-29.47-2.52c-.336 0-.658.133-.895.37a1.257 1.257 0 0 0 .894 2.15h3.1c.632 0 1.264-.567 1.264-1.26 0-.693-.632-1.26-1.265-1.26H1.675zM25.58 23.63a1.265 1.265 0 0 0-1.47-.315c-.163.074-.309.181-.428.315a1.26 1.26 0 0 0-.29 1.41c.067.158.166.3.29.417l2.277 2.205a1.263 1.263 0 0 0 1.416.29c.158-.068.3-.166.418-.29.506-.504.506-1.323 0-1.89l-2.213-2.142zM5.027 25.834a1.26 1.26 0 0 0 0 1.827c.506.44 1.328.504 1.897 0l2.15-2.205a1.29 1.29 0 0 0 0-1.827c-.505-.504-1.264-.504-1.833 0l-2.214 2.205zm12.648 2.142a1.266 1.266 0 0 0-2.53 0v3.086c0 .63.57 1.26 1.266 1.26.695 0 1.264-.63 1.264-1.26v-3.086z" fill="#171717"/></svg>