<svg width="9" height="15" viewBox="0 0 9 15" fill="none" xmlns="http://www.w3.org/2000/svg">
<path d="M4.5 6.5L3.65363 6.16145C2.6374 5.75496 1.93169 4.8169 1.82278 3.72783L1.79851 3.48511C1.63869 1.88685 2.89377 0.5 4.5 0.5V0.5C6.10623 0.5 7.36131 1.88685 7.20149 3.48511L7.17722 3.72783C7.06831 4.8169 6.3626 5.75496 5.34637 6.16145L4.5 6.5ZM4.5 6.5L5.44427 6.97214C6.13855 7.31927 6.90411 7.5 7.68034 7.5H9M4.5 6.5L3.55573 6.97214C2.86145 7.31927 2.09589 7.5 1.31966 7.5H0M4.5 6.5V14.5" stroke="black"/>
</svg>
