<svg viewBox="0 0 25 50" fill="none" xmlns="http://www.w3.org/2000/svg">
    <path d="M13.5 24L14.5417 51H12.4583L13.5 24ZM13.5 24L26 23V25L13.5 24ZM13.5 24L1 23V25L13.5 24ZM13.5 24L6.88123 12.8805C5.79416 11.0542 5.56908 8.84106 6.26621 6.83332V6.83332C6.89587 5.0199 8.22331 3.53281 9.9539 2.70213L10.1532 2.60648C12.2688 1.59096 14.7312 1.59096 16.8468 2.60648L17.0461 2.70213C18.7767 3.53281 20.1041 5.0199 20.7338 6.83332V6.83332C21.4309 8.84106 21.2058 11.0542 20.1188 12.8805L13.5 24Z" stroke="#102A43" stroke-width="2"/>
</svg>