<svg xmlns="http://www.w3.org/2000/svg" version="1.1" xmlns:xlink="http://www.w3.org/1999/xlink" xmlns:svgjs="http://svgjs.com/svgjs" width="50" height="50"><svg width="50" height="50" viewBox="0 0 50 50" fill="none" xmlns="http://www.w3.org/2000/svg">
<path d="M50 25C50 38.8071 38.8071 50 25 50C11.1929 50 0 38.8071 0 25C0 11.1929 11.1929 0 25 0C38.8071 0 50 11.1929 50 25Z" fill="#F6F9FC"></path>
<path d="M24.9292 21.5071H21.2104C21.1043 20.8973 20.9088 20.357 20.6238 19.8864C20.3387 19.4091 19.9841 19.0047 19.5598 18.6733C19.1356 18.3419 18.6517 18.0933 18.1081 17.9276C17.5712 17.7552 16.9912 17.669 16.3681 17.669C15.2611 17.669 14.28 17.9474 13.4249 18.5043C12.5698 19.0545 11.9003 19.8632 11.4164 20.9304C10.9325 21.991 10.6905 23.2869 10.6905 24.8182C10.6905 26.3759 10.9325 27.6884 11.4164 28.7557C11.9069 29.8163 12.5764 30.6184 13.4249 31.1619C14.28 31.6989 15.2578 31.9673 16.3581 31.9673C16.968 31.9673 17.5381 31.8878 18.0684 31.7287C18.6053 31.563 19.0859 31.321 19.5101 31.0028C19.941 30.6847 20.3023 30.2936 20.5939 29.8295C20.8922 29.3655 21.0977 28.8352 21.2104 28.2386L24.9292 28.2585C24.79 29.2263 24.4883 30.1345 24.0243 30.983C23.5669 31.8314 22.967 32.5805 22.2246 33.2301C21.4822 33.8731 20.6138 34.3769 19.6195 34.7415C18.6252 35.0994 17.5215 35.2784 16.3084 35.2784C14.5186 35.2784 12.9211 34.8641 11.5158 34.0355C10.1105 33.2069 9.00349 32.0104 8.19478 30.446C7.38607 28.8816 6.98171 27.0057 6.98171 24.8182C6.98171 22.6241 7.38938 20.7481 8.20472 19.1903C9.02006 17.6259 10.1304 16.4295 11.5357 15.6009C12.941 14.7723 14.5319 14.358 16.3084 14.358C17.4419 14.358 18.4959 14.517 19.4703 14.8352C20.4448 15.1534 21.3132 15.6207 22.0755 16.2372C22.8378 16.8471 23.4642 17.5961 23.9547 18.4844C24.4519 19.366 24.7767 20.3736 24.9292 21.5071Z" fill="#102A43"></path>
<path d="M28.3074 35V14.6364H35.9437C37.5081 14.6364 38.8206 14.9081 39.8812 15.4517C40.9484 15.9953 41.7538 16.7576 42.2974 17.7386C42.8476 18.7131 43.1227 19.8499 43.1227 21.1491C43.1227 22.455 42.8443 23.5885 42.2875 24.5497C41.7373 25.5043 40.9253 26.2434 39.8514 26.767C37.8727 27.1548 39.752 26.7865 35.894 27.5426H31.9963V24.4801H35.3968C36.3116 24.4801 37.0607 24.3542 37.644 24.1023C38.2273 23.8437 38.6582 23.4692 38.9366 22.9787C39.2216 22.4815 39.3642 21.8717 39.3642 21.1491C39.3642 20.4266 39.2216 19.8101 38.9366 19.2997C38.6516 18.7827 38.2174 18.3916 37.6341 18.1264C37.0507 17.8546 36.2984 17.7188 35.377 17.7188H31.9963V35H28.3074ZM39.8514 26.767L43.8684 35H39.752L35.894 27.5426L39.8514 26.767Z" fill="#102A43"></path>
</svg><style>@media (prefers-color-scheme: light) { :root { filter: none; } }
@media (prefers-color-scheme: dark) { :root { filter: none; } }
</style></svg>