<?xml version="1.0" standalone="no"?>
<!DOCTYPE svg PUBLIC "-//W3C//DTD SVG 20010904//EN"
 "http://www.w3.org/TR/2001/REC-SVG-20010904/DTD/svg10.dtd">
<svg version="1.0" xmlns="http://www.w3.org/2000/svg"
 width="1600.000000pt" height="1600.000000pt" viewBox="0 0 1600.000000 1600.000000"
 preserveAspectRatio="xMidYMid meet">
<metadata>
Created by potrace 1.14, written by Peter Selinger 2001-2017
</metadata>
<g transform="translate(0.000000,1600.000000) scale(0.100000,-0.100000)"
fill="#000000" stroke="none">
<path d="M7828 15895 c-2 -2 -43 -5 -93 -9 -49 -3 -99 -8 -110 -10 -26 -4
-114 -18 -140 -22 -53 -7 -87 -14 -195 -39 -58 -14 -189 -50 -260 -72 -47 -15
-87 -27 -90 -28 -29 -9 -255 -106 -287 -123 -17 -9 -58 -31 -90 -48 -82 -44
-215 -131 -304 -200 -259 -200 -466 -435 -636 -719 -19 -32 -120 -236 -144
-290 -43 -99 -126 -362 -134 -425 -1 -8 -4 -22 -7 -30 -4 -8 -10 -37 -14 -65
-4 -27 -9 -57 -10 -65 -3 -15 -10 -73 -20 -160 -6 -62 -12 -105 -14 -105 -1 0
-3 -16 -4 -35 -1 -19 -6 -84 -11 -145 -17 -203 -8 -470 20 -660 4 -22 8 -53
10 -70 1 -16 4 -30 5 -30 1 0 3 -13 5 -30 2 -16 7 -41 11 -55 4 -14 8 -32 9
-40 3 -27 26 -124 35 -150 5 -14 11 -36 14 -50 2 -14 12 -45 21 -70 9 -25 17
-52 19 -60 1 -8 5 -22 8 -30 6 -13 30 -87 33 -100 2 -5 10 -27 25 -65 4 -11
13 -38 20 -60 44 -143 165 -465 220 -580 87 -187 115 -242 128 -257 8 -10 12
-18 9 -18 -3 0 16 -39 43 -86 28 -47 50 -87 50 -89 0 -19 250 -395 333 -500
43 -55 177 -229 197 -255 14 -18 31 -39 38 -46 6 -7 12 -17 12 -22 0 -6 4 -12
8 -14 5 -1 33 -34 62 -73 30 -38 57 -72 60 -75 3 -3 25 -32 50 -65 25 -33 50
-66 57 -75 27 -34 115 -146 131 -167 9 -12 42 -54 72 -93 85 -111 289 -373
301 -388 9 -10 152 -195 202 -260 7 -9 6 -11 -4 -8 -13 4 -71 9 -240 22 -102
7 -137 11 -149 19 -5 3 -10 1 -10 -5 0 -6 -3 -9 -7 -7 -9 6 -79 14 -183 22
-41 3 -95 8 -120 10 -25 2 -79 7 -120 10 -41 3 -97 8 -125 11 -49 5 -78 7
-235 20 -41 3 -95 8 -120 10 -25 2 -74 6 -110 9 -36 3 -87 7 -115 10 -27 3
-90 7 -140 10 -49 3 -98 8 -108 11 -10 3 -55 7 -100 10 -98 5 -174 10 -242 18
-27 3 -84 8 -125 11 -116 9 -175 13 -243 19 -103 9 -199 18 -247 21 -25 2 -67
6 -95 9 -27 2 -86 7 -130 11 -44 4 -100 9 -125 11 -25 3 -72 7 -105 9 -104 7
-257 19 -367 31 l-68 6 0 -612 0 -612 98 6 c53 4 113 9 132 11 19 2 71 6 115
9 84 6 160 12 260 21 92 9 216 18 253 18 17 1 32 5 32 10 0 5 6 4 13 -2 8 -6
16 -9 19 -6 2 3 36 7 74 10 38 3 87 8 109 10 22 2 81 7 130 10 50 4 110 9 135
11 25 2 79 6 120 8 41 3 98 8 125 11 28 3 86 8 130 11 44 3 96 7 115 9 19 2
73 6 120 9 98 7 116 8 395 32 33 2 85 7 116 9 52 4 119 9 264 21 81 6 156 12
240 18 70 5 129 10 258 21 82 7 146 12 247 20 41 3 98 7 125 10 28 2 89 7 136
11 l86 5 -2 -69 c-1 -38 -5 -73 -8 -78 -3 -6 -2 -16 3 -23 4 -8 4 -26 0 -41
-5 -18 -4 -32 3 -39 6 -6 7 -11 2 -11 -6 0 -11 -42 -12 -93 -2 -98 -7 -230
-19 -527 -4 -102 -7 -222 -8 -267 -1 -46 -3 -83 -6 -83 -3 0 -6 -55 -6 -123
-1 -67 -4 -187 -8 -267 -3 -80 -8 -215 -12 -300 -3 -85 -7 -200 -10 -255 -4
-115 -12 -311 -19 -505 -4 -132 -10 -290 -21 -540 -2 -69 -7 -179 -9 -245 -2
-66 -7 -183 -10 -260 -3 -77 -8 -207 -11 -290 -3 -82 -7 -197 -9 -255 -8 -189
-14 -353 -19 -495 -3 -77 -8 -205 -11 -285 -3 -80 -8 -192 -10 -250 -2 -58 -7
-166 -10 -240 -3 -74 -7 -202 -10 -285 -2 -82 -5 -150 -5 -150 -1 0 -3 -54 -5
-120 -9 -258 -13 -347 -18 -352 -3 -3 -2 -15 3 -28 5 -13 6 -25 3 -28 -2 -3
-7 -52 -9 -109 -2 -57 -6 -175 -9 -263 -4 -88 -8 -203 -10 -255 -9 -243 -16
-432 -20 -510 -2 -47 -7 -166 -10 -265 -4 -99 -7 -193 -8 -210 l-2 -30 625 -3
625 -2 -3 62 c-1 35 -4 113 -7 173 -2 61 -7 175 -10 255 -3 80 -8 204 -10 275
-3 72 -7 182 -9 245 -3 63 -7 185 -10 270 -7 182 -17 405 -20 440 -1 14 2 33
6 42 5 9 4 19 0 22 -5 3 -10 58 -12 123 -1 65 -4 143 -5 173 -1 30 -5 143 -9
250 -4 107 -9 236 -11 285 -7 155 -16 376 -20 480 -19 531 -20 542 -30 800 -3
83 -8 206 -10 275 -2 69 -5 125 -5 125 -1 0 -3 54 -5 120 -6 183 -20 542 -30
780 -2 61 -7 191 -11 290 -3 99 -8 216 -9 260 -2 44 -6 145 -9 225 -3 80 -8
201 -11 270 -2 69 -7 193 -10 275 -3 83 -8 202 -10 265 -3 63 -7 171 -10 240
-2 69 -7 186 -10 260 -14 380 -17 471 -19 532 0 38 -5 68 -9 68 -5 0 -5 5 -1
12 8 13 12 68 4 68 -3 0 -5 43 -6 96 l-1 95 96 -7 c53 -4 114 -8 136 -10 22
-1 69 -5 105 -8 98 -8 197 -16 275 -21 39 -3 88 -7 110 -10 37 -4 122 -10 250
-19 28 -2 79 -6 115 -10 36 -3 99 -8 140 -11 41 -3 98 -8 125 -10 28 -3 82 -7
120 -10 39 -3 99 -7 135 -10 212 -17 293 -23 385 -30 67 -4 160 -12 250 -21
33 -3 87 -7 120 -9 110 -8 195 -14 253 -20 31 -3 89 -8 127 -11 39 -3 97 -7
130 -10 33 -2 89 -6 125 -9 36 -3 90 -7 120 -9 104 -9 215 -18 265 -21 28 -2
75 -6 105 -9 30 -3 82 -8 115 -10 33 -3 102 -8 153 -11 l92 -7 0 612 0 612
-52 -6 c-82 -9 -219 -20 -260 -20 -21 -1 -38 -3 -38 -6 0 -3 -21 -6 -48 -6
-55 -2 -197 -12 -262 -19 -95 -10 -167 -16 -230 -21 -36 -2 -85 -6 -110 -8
-25 -2 -81 -7 -125 -11 -44 -3 -100 -8 -125 -10 -25 -2 -79 -7 -120 -10 -41
-3 -93 -8 -115 -10 -22 -1 -74 -6 -115 -9 -41 -4 -97 -9 -125 -11 -27 -2 -81
-7 -120 -10 -38 -3 -90 -8 -115 -10 -63 -6 -206 -17 -265 -20 -27 -2 -50 -4
-50 -5 0 -2 -12 -3 -160 -14 -44 -3 -98 -8 -120 -10 -65 -7 -196 -18 -251 -21
-28 -2 -76 -6 -105 -9 -30 -3 -85 -8 -124 -11 -38 -3 -90 -8 -115 -10 -25 -2
-79 -7 -120 -10 -41 -3 -95 -8 -120 -10 -25 -2 -83 -6 -130 -10 -128 -10 -130
-10 -109 8 9 6 47 53 84 102 38 50 75 96 82 103 7 7 13 17 13 20 0 4 10 18 23
32 12 14 33 41 47 60 13 19 28 38 32 41 5 3 19 19 31 36 31 44 150 197 156
203 3 3 35 43 70 90 36 47 77 101 93 120 15 19 36 46 47 60 30 37 142 182 171
220 14 18 40 52 58 74 39 50 41 52 77 101 17 21 37 47 45 56 8 9 24 29 35 45
11 15 27 35 35 44 8 9 20 24 25 32 26 41 129 173 137 176 4 2 8 8 8 13 0 9 37
66 50 79 3 3 20 28 38 55 17 28 35 55 40 60 8 11 93 149 125 205 75 131 225
425 232 455 2 9 17 44 61 142 8 17 14 33 14 36 0 2 8 22 17 43 9 22 18 44 19
49 1 6 21 62 44 125 23 63 51 144 62 180 11 36 25 71 30 78 6 6 8 12 5 12 -3
0 13 51 34 113 22 61 42 120 44 130 2 10 7 27 10 37 3 10 8 27 10 37 3 10 16
63 29 118 14 55 27 114 30 130 3 17 8 39 10 50 2 11 7 40 10 65 3 25 8 55 11
68 18 94 25 491 11 642 -4 47 -9 103 -12 125 -2 22 -8 69 -13 104 -6 35 -9 67
-9 70 1 3 -2 17 -5 31 -6 23 -14 72 -22 127 -2 11 -6 30 -9 41 -4 11 -9 30
-11 41 -10 42 -14 57 -33 119 -11 34 -18 62 -17 62 2 0 -12 39 -31 87 -19 49
-34 91 -34 95 0 9 -132 280 -157 323 -10 17 -29 48 -43 70 -14 22 -29 47 -35
56 -103 170 -336 436 -495 565 -19 16 -37 32 -40 35 -19 25 -218 165 -320 225
-150 89 -410 213 -432 206 -5 -1 -8 3 -8 10 0 6 -3 9 -6 6 -3 -4 -38 5 -77 19
-40 14 -79 27 -87 28 -8 2 -15 4 -15 5 0 1 -7 3 -15 5 -8 1 -35 8 -60 16 -25
7 -50 13 -57 15 -7 1 -40 9 -75 18 -35 8 -81 18 -103 22 -22 3 -44 7 -50 8
-12 3 -87 15 -140 22 -87 12 -488 27 -497 19z m366 -649 c65 -7 126 -16 156
-21 14 -3 36 -7 50 -10 53 -9 206 -47 225 -55 11 -5 34 -12 50 -16 17 -4 35
-8 40 -10 58 -14 369 -155 385 -173 3 -3 17 -12 33 -20 15 -8 27 -18 27 -23 0
-4 6 -8 14 -8 24 0 209 -146 312 -247 55 -54 129 -134 164 -178 34 -44 66 -81
71 -83 5 -2 9 -9 9 -15 0 -11 46 -85 69 -113 25 -30 139 -267 166 -344 1 -3 4
-12 8 -20 22 -57 75 -255 82 -305 1 -11 3 -20 4 -20 1 0 4 -13 5 -30 2 -16 6
-52 10 -79 4 -26 9 -69 12 -95 2 -25 7 -66 11 -91 14 -97 6 -481 -12 -550 -2
-8 -6 -35 -9 -60 -3 -25 -9 -56 -12 -70 -3 -14 -7 -36 -10 -50 -3 -14 -12 -50
-20 -80 -8 -30 -17 -64 -19 -76 -3 -12 -11 -40 -20 -63 -8 -23 -14 -42 -14
-44 0 -1 -2 -9 -5 -17 -15 -39 -128 -376 -130 -385 -1 -5 -4 -14 -7 -20 -11
-17 -43 -120 -41 -127 1 -5 -3 -8 -8 -8 -6 0 -10 -6 -10 -14 0 -7 -8 -33 -19
-57 -29 -70 -34 -84 -33 -91 1 -5 -3 -8 -8 -8 -6 0 -10 -6 -10 -13 0 -7 -10
-33 -22 -58 -12 -24 -22 -46 -23 -49 -2 -7 -117 -232 -131 -255 -7 -11 -20
-33 -28 -50 -28 -53 -68 -119 -92 -152 -13 -17 -24 -34 -24 -37 0 -6 -110
-168 -120 -176 -3 -3 -14 -18 -24 -35 -16 -24 -77 -103 -229 -299 -12 -15 -26
-33 -32 -40 -5 -6 -23 -29 -39 -51 -17 -22 -33 -42 -36 -45 -3 -3 -17 -21 -30
-40 -14 -19 -32 -42 -40 -51 -8 -9 -22 -26 -30 -38 -14 -22 -28 -39 -71 -89
-10 -12 -19 -26 -19 -31 0 -5 -3 -11 -8 -13 -7 -3 -61 -70 -184 -231 -26 -34
-54 -69 -61 -77 -7 -8 -37 -48 -67 -87 -30 -40 -58 -73 -62 -73 -5 0 -8 -5 -8
-11 0 -11 -79 -111 -92 -117 -5 -2 -8 -8 -8 -14 0 -5 -6 -15 -12 -23 -17 -17
-37 -42 -72 -90 -38 -51 -46 -61 -94 -113 -56 -60 -66 -55 -162 68 -19 25 -38
50 -43 55 -14 18 -146 188 -190 244 -23 30 -61 79 -84 108 -24 29 -43 56 -43
59 0 4 -8 14 -18 23 -10 9 -29 32 -42 51 -13 19 -27 37 -30 40 -3 3 -28 34
-55 70 -27 36 -57 73 -67 83 -10 10 -18 21 -18 25 0 4 -13 21 -28 39 -15 17
-61 75 -102 129 -41 53 -128 165 -193 248 -170 219 -210 271 -227 296 -24 36
-89 124 -100 137 -5 7 -15 24 -22 38 -6 14 -16 25 -21 25 -6 0 -7 3 -4 7 4 3
1 13 -6 22 -21 25 -90 138 -137 226 -66 122 -174 341 -175 355 0 3 -3 10 -7
15 -5 9 -70 172 -73 185 -1 3 -5 12 -8 20 -9 20 -188 541 -192 560 -2 8 -11
42 -20 75 -18 64 -22 81 -30 118 -17 78 -26 128 -30 158 -2 19 -6 44 -9 56 -8
36 -19 222 -20 318 0 117 13 301 28 400 2 17 7 55 10 85 10 84 26 181 39 235
3 11 11 43 17 70 16 65 51 167 62 180 4 5 8 15 8 23 0 18 116 251 135 272 8 9
15 19 15 23 0 12 114 169 165 226 46 52 125 130 186 184 30 26 61 53 69 61 12
11 92 65 215 144 11 7 32 18 48 25 15 6 27 15 27 19 0 4 8 8 18 8 10 0 22 4
28 10 20 20 268 113 338 126 12 2 51 12 89 23 37 11 67 17 67 14 0 -3 7 0 15
7 8 7 15 10 15 7 0 -3 17 -1 38 4 86 19 127 25 237 34 44 4 81 8 83 10 5 4
296 -3 346 -9z"/>
</g>
</svg>
