<?xml version="1.0" standalone="no"?>
<!DOCTYPE svg PUBLIC "-//W3C//DTD SVG 20010904//EN"
 "http://www.w3.org/TR/2001/REC-SVG-20010904/DTD/svg10.dtd">
<svg version="1.0" xmlns="http://www.w3.org/2000/svg"
 width="960.000000pt" height="960.000000pt" viewBox="0 0 960.000000 960.000000"
 preserveAspectRatio="xMidYMid meet">
<metadata>
Created by potrace 1.14, written by Peter Selinger 2001-2017
</metadata>
<g transform="translate(0.000000,960.000000) scale(0.100000,-0.100000)"
fill="#000000" stroke="none">
<path d="M4619 9595 c-2 -2 -29 -6 -59 -9 -30 -3 -64 -8 -75 -10 -11 -2 -40
-7 -65 -12 -25 -4 -47 -8 -50 -9 -3 -1 -21 -5 -40 -9 -96 -21 -214 -59 -320
-104 -60 -24 -225 -106 -230 -113 -3 -3 -23 -16 -45 -28 -45 -24 -78 -44 -85
-51 -3 -3 -23 -18 -46 -33 -22 -15 -49 -35 -60 -45 -10 -9 -36 -29 -56 -44
-74 -56 -288 -278 -288 -299 0 -5 -4 -9 -10 -9 -20 0 -250 -368 -250 -401 0
-7 -6 -20 -13 -28 -14 -17 -77 -181 -102 -266 -71 -247 -96 -528 -71 -805 8
-85 16 -162 21 -197 20 -132 20 -136 39 -217 25 -105 62 -230 81 -270 9 -19
18 -40 19 -48 8 -38 106 -235 166 -334 134 -219 319 -425 530 -591 87 -68 228
-159 323 -208 42 -22 77 -43 77 -46 0 -18 -370 -161 -474 -184 -12 -2 -46 -11
-76 -19 -52 -14 -73 -19 -137 -31 -16 -3 -50 -10 -78 -15 -27 -6 -75 -12 -105
-15 -30 -3 -68 -8 -84 -11 -30 -5 -248 -16 -281 -14 -11 1 -27 1 -35 0 -8 0
-24 0 -35 0 -11 1 -26 1 -32 1 -26 -2 -41 -1 -146 1 -59 2 -107 0 -107 -3 0
-4 -16 -3 -35 1 -19 4 -37 4 -40 -1 -3 -4 -16 -5 -28 0 -12 5 -31 5 -42 1 -11
-4 -24 -5 -29 -2 -13 7 -146 8 -146 1 0 -4 -16 -3 -35 1 -19 4 -37 4 -40 -1
-3 -4 -16 -5 -28 0 -12 5 -31 5 -42 1 -11 -4 -23 -6 -28 -3 -4 2 -7 -140 -7
-317 0 -253 3 -321 13 -317 6 2 19 1 28 -4 8 -4 21 -4 29 1 7 4 23 4 36 0 12
-5 25 -6 28 -3 8 8 76 9 76 1 0 -4 14 -3 30 2 17 5 30 5 30 0 0 -5 13 -5 30 0
17 5 30 5 30 0 0 -5 13 -5 30 0 17 5 30 5 30 0 0 -5 13 -5 30 0 17 5 30 5 30
0 0 -5 13 -5 30 0 17 5 30 5 30 0 0 -5 13 -5 30 0 17 5 30 5 30 0 0 -5 13 -5
30 0 17 5 30 5 30 0 0 -5 13 -5 30 0 17 5 30 5 30 0 0 -5 13 -5 30 0 17 5 30
5 30 0 0 -5 13 -5 30 0 17 5 30 5 30 0 0 -4 16 -4 35 0 20 4 38 4 41 -1 3 -5
10 -7 15 -3 5 3 53 7 107 9 119 5 241 16 332 30 19 3 44 7 55 9 83 13 120 20
235 46 123 28 125 28 125 30 0 1 8 3 18 5 47 9 227 69 357 118 74 28 143 59
280 125 52 25 108 52 124 59 l28 13 -4 -40 c-2 -22 -1 -40 3 -40 3 0 3 -17 -1
-38 -3 -20 -3 -49 1 -63 3 -15 3 -33 -2 -40 -4 -7 -6 -16 -3 -20 5 -9 5 -28 2
-517 -2 -232 0 -422 3 -422 3 0 3 -19 -1 -43 -3 -23 -3 -57 1 -74 3 -18 4 -33
0 -33 -7 0 -6 -88 1 -96 3 -2 2 -21 -1 -42 -4 -20 -4 -52 0 -69 3 -18 4 -33 0
-33 -5 0 -6 -86 0 -100 1 -3 1 -9 0 -13 -1 -7 -1 -36 0 -117 0 -8 -2 -36 -3
-63 -2 -26 1 -47 5 -47 5 0 6 -4 2 -9 -5 -8 -5 -30 -4 -121 0 -8 -2 -36 -3
-63 -2 -26 -1 -47 2 -47 3 0 3 -29 0 -65 -3 -36 -2 -65 3 -65 4 0 5 -5 2 -10
-9 -14 -9 -785 -1 -799 4 -6 4 -11 -1 -11 -8 0 -7 -115 2 -137 2 -7 1 -13 -3
-13 -4 0 -7 -22 -7 -50 0 -27 3 -50 6 -50 4 0 3 -15 0 -32 -4 -18 -4 -50 0
-70 3 -21 4 -38 0 -38 -7 0 -6 -88 1 -96 3 -2 2 -19 -1 -37 -4 -18 -4 -49 0
-69 3 -21 4 -40 1 -43 -5 -4 -6 -76 -2 -92 1 -5 1 -12 0 -18 -1 -5 -1 -32 0
-60 0 -27 1 -54 1 -60 0 -5 0 -28 0 -50 0 -22 0 -47 0 -55 0 -8 -1 -37 -1 -65
-1 -27 -1 -54 0 -60 1 -5 2 -13 2 -16 -5 -32 -4 -220 0 -224 3 -4 2 -20 -2
-38 -4 -18 -4 -41 0 -52 4 -11 3 -30 -1 -43 -9 -25 8 -39 35 -29 8 3 17 3 20
0 8 -8 96 -9 96 -1 0 4 6 5 14 2 22 -8 256 -10 256 -2 0 4 6 5 13 3 18 -8 147
-11 147 -4 0 3 13 4 29 1 19 -3 30 1 34 12 4 9 2 16 -2 16 -5 0 -6 15 -2 33 4
17 4 44 0 58 -3 15 -3 32 1 39 4 7 4 27 0 45 -4 18 -4 38 0 45 4 7 4 27 0 46
-4 19 -5 34 -1 34 7 0 6 88 -1 96 -3 2 -2 21 1 42 4 20 4 52 0 70 -3 17 -4 32
0 32 7 0 6 88 -1 96 -3 2 -2 21 1 42 4 20 4 52 0 70 -3 17 -4 32 0 32 7 0 6
88 -1 96 -3 2 -2 21 1 42 4 20 4 52 0 70 -3 17 -4 32 0 32 7 0 6 88 -1 96 -3
2 -2 21 1 42 4 20 4 52 0 70 -3 17 -4 32 0 32 7 0 6 88 -1 96 -3 2 -2 21 1 42
4 20 4 52 0 70 -3 17 -4 32 0 32 7 0 6 88 -1 96 -3 2 -2 21 1 42 4 20 4 52 0
70 -3 17 -4 32 0 32 7 0 6 88 -1 96 -3 2 -2 21 1 42 4 20 4 52 0 70 -3 17 -4
32 0 32 7 0 6 88 -1 96 -3 2 -2 21 1 42 4 20 4 52 0 70 -3 17 -4 32 0 32 7 0
6 88 -1 96 -3 2 -2 21 1 42 4 20 4 52 0 70 -3 17 -4 32 0 32 7 0 6 88 -1 96
-3 2 -2 21 1 42 4 20 4 52 0 70 -3 17 -4 32 0 32 7 0 6 88 -1 96 -3 2 -2 21 1
42 4 20 4 52 0 70 -3 17 -4 32 0 32 7 0 6 88 -1 96 -3 2 -2 21 1 42 4 20 4 52
0 70 -3 17 -4 32 0 32 7 0 6 88 -1 96 -3 2 -2 21 1 42 4 20 4 52 0 70 -3 17
-4 32 0 32 7 0 6 88 -1 96 -3 2 -2 21 1 42 4 20 4 52 0 70 -3 17 -4 32 0 32 7
0 6 88 -1 95 -2 2 -1 32 2 65 3 34 3 63 -1 66 -4 2 -4 19 0 36 4 18 4 45 0 60
-4 15 -5 29 -2 31 8 8 6 445 -2 458 -5 7 -4 10 1 6 5 -3 7 17 5 45 -3 46 -2
49 15 40 48 -25 300 -144 309 -146 6 -1 15 -4 20 -8 6 -3 48 -20 95 -38 47
-17 94 -35 105 -40 89 -39 453 -132 608 -154 20 -4 52 -8 70 -11 121 -18 242
-28 374 -29 51 -1 93 -4 93 -8 0 -4 13 -3 30 2 17 5 32 5 35 0 3 -5 15 -6 29
0 12 4 29 4 36 0 8 -5 21 -5 30 0 9 5 22 5 30 0 8 -5 21 -5 30 0 9 5 22 5 30
0 8 -5 21 -5 30 0 9 5 22 5 30 0 8 -5 21 -5 30 0 9 5 22 5 30 0 8 -5 21 -5 30
0 9 5 22 5 30 0 8 -5 21 -5 30 0 9 5 22 5 30 0 8 -5 21 -5 30 0 9 5 22 5 30 0
8 -5 21 -5 30 0 9 5 22 5 30 0 8 -5 21 -5 30 0 9 5 22 5 30 0 8 -5 21 -5 30 0
9 5 22 5 29 0 8 -4 27 -4 42 0 16 5 29 6 29 2 0 -4 16 -7 35 -7 l35 0 0 324 0
323 -24 -4 c-14 -3 -30 -1 -37 3 -7 4 -20 4 -29 -1 -9 -5 -22 -5 -30 0 -8 5
-21 5 -30 0 -9 -5 -22 -5 -30 0 -8 5 -21 5 -30 0 -9 -5 -22 -5 -30 0 -8 5 -21
5 -30 0 -9 -5 -22 -5 -30 0 -8 5 -21 5 -30 0 -9 -5 -22 -5 -30 0 -8 5 -21 5
-30 0 -9 -5 -22 -5 -30 0 -8 5 -21 5 -30 0 -9 -5 -22 -5 -30 0 -8 5 -21 5 -30
0 -9 -5 -22 -5 -30 0 -8 5 -21 5 -30 0 -9 -5 -22 -5 -30 0 -7 4 -24 4 -36 0
-14 -6 -26 -5 -29 0 -3 5 -18 5 -34 0 -15 -4 -34 -4 -41 0 -6 4 -27 4 -46 0
-19 -4 -34 -5 -34 -1 0 3 -46 6 -103 6 -130 1 -313 16 -377 32 -14 3 -34 7
-45 8 -91 7 -520 129 -549 156 -6 5 -16 9 -23 9 -7 0 -52 18 -100 40 l-86 41
74 37 c41 20 85 44 99 53 14 9 55 35 92 58 37 23 77 51 89 62 12 10 25 19 29
19 3 0 15 8 26 18 10 9 44 37 74 62 94 78 224 211 311 320 220 275 393 671
443 1010 5 37 16 117 21 160 20 156 25 408 11 550 -5 47 -10 97 -11 112 -2 14
-6 31 -9 36 -3 5 -8 31 -11 58 -4 26 -9 53 -13 58 -4 6 -7 13 -7 16 -15 102
-166 486 -197 498 -4 2 -8 8 -8 13 0 12 -62 113 -72 117 -4 2 -8 8 -8 14 0 11
-32 55 -119 163 -83 103 -242 260 -322 317 -13 10 -49 36 -79 59 -108 80 -308
188 -435 236 -22 8 -49 19 -60 23 -11 5 -38 14 -60 20 -22 6 -49 15 -60 20
-11 5 -38 12 -60 16 -22 4 -42 8 -45 9 -43 11 -107 24 -150 30 -19 3 -51 8
-70 11 -41 6 -426 14 -431 9z m264 -641 c56 -3 113 -7 127 -8 72 -9 295 -72
336 -95 11 -5 37 -18 59 -27 22 -10 51 -25 65 -35 14 -9 30 -18 35 -19 20 -5
122 -75 190 -130 145 -119 279 -284 366 -450 19 -36 34 -67 35 -70 0 -3 8 -22
17 -43 21 -49 63 -182 72 -227 3 -19 8 -44 10 -55 2 -11 4 -20 5 -20 12 0 18
-334 7 -420 -3 -27 -9 -77 -13 -110 -11 -97 -11 -100 -13 -100 -2 0 -4 -17 -7
-37 -10 -80 -103 -358 -135 -403 -4 -5 -21 -37 -39 -70 -102 -191 -274 -379
-473 -516 -74 -51 -292 -169 -312 -169 -4 0 -21 -6 -38 -14 -18 -8 -88 -37
-157 -64 -69 -27 -134 -53 -145 -57 -11 -5 -23 -9 -27 -9 -3 -1 -10 -4 -14 -8
-17 -17 -92 4 -219 61 -11 5 -72 30 -135 55 -285 111 -427 197 -603 366 -44
41 -102 104 -130 140 -28 36 -54 67 -57 70 -9 8 -90 141 -90 147 0 4 -7 14
-16 24 -8 9 -17 23 -18 31 -2 7 -17 43 -33 79 -95 206 -147 476 -147 769 0
167 8 228 58 420 7 25 55 150 63 163 4 7 8 14 8 17 2 15 70 135 112 196 125
186 292 338 496 453 76 43 254 112 317 125 14 2 48 10 75 16 63 15 84 18 169
24 37 3 71 7 74 10 2 3 9 3 14 0 5 -3 55 -8 111 -10z"/>
</g>
</svg>
