<svg width="26" height="50" viewBox="0 0 26 50" fill="none" xmlns="http://www.w3.org/2000/svg">
<g clip-path="url(#clip0_429_41)">
<path d="M2 1H24V5.72705C24 8.88472 22.944 11.9517 21 14.44L16.1693 21.1541C15.7933 21.6768 15.5218 22.2671 15.3696 22.8927L15.1445 23.8185C14.9557 24.5948 14.9557 25.4052 15.1445 26.1815L15.3288 26.9394C15.5073 27.6733 15.8497 28.3572 16.3303 28.9398L21 34.6C22.9459 37.1473 24 40.2638 24 43.4693V49H2V43.5895C2 40.315 3.12797 37.1404 5.1941 34.6L9.71491 28.9159C10.1662 28.3485 10.4887 27.6896 10.6601 26.9851L10.8555 26.1815C11.0443 25.4052 11.0443 24.5948 10.8555 23.8185L10.6304 22.8927C10.4782 22.2671 10.2067 21.6768 9.83066 21.1541L5 14.44C3.056 11.9517 2 8.88472 2 5.72705V1Z" fill="url(#paint0_linear_429_41)"/>
<path d="M0 1H2M2 1H24M2 1V5.72705C2 8.88472 3.056 11.9517 5 14.44M26 1H24M24 1V5.72705C24 8.88472 22.944 11.9517 21 14.44M5 14.44L9.83066 21.1541C10.2067 21.6768 10.4782 22.2671 10.6304 22.8927L10.8555 23.8185C11.0443 24.5948 11.0443 25.4052 10.8555 26.1815L10.6601 26.9851C10.4887 27.6896 10.1662 28.3485 9.71491 28.9159L5.1941 34.6C3.12797 37.1404 2 40.315 2 43.5895V49M5 14.44H13H21M0 49H2M2 49H24M26 49H24M24 49V43.4693C24 40.2638 22.9459 37.1473 21 34.6L16.3303 28.9398C15.8497 28.3572 15.5073 27.6733 15.3288 26.9394L15.1445 26.1815C14.9557 25.4052 14.9557 24.5948 15.1445 23.8185L15.3696 22.8927C15.5218 22.2671 15.7933 21.6768 16.1693 21.1541L21 14.44" stroke="#102A43" stroke-width="2"/>
</g>
<defs>
<linearGradient id="paint0_linear_429_41" x1="13" y1="1" x2="13" y2="49" gradientUnits="userSpaceOnUse">
<stop offset="0.295342" stop-color="#102A43"/>
<stop offset="0.295442"/>
<stop offset="0.295541" stop-color="#646C77" stop-opacity="0"/>
</linearGradient>
<clipPath id="clip0_429_41">
<rect width="26" height="50" fill="white"/>
</clipPath>
</defs>
</svg>
