<svg width="21" height="40" fill="none" xmlns="http://www.w3.org/2000/svg"><mask id="a" style="mask-type:luminance" maskUnits="userSpaceOnUse" x="0" y="0" width="21" height="40"><path d="M20.8 0H0v40h20.8V0z" fill="#fff"/></mask><g mask="url(#a)"><path d="M1.6.8h17.6v3.782c0 2.527-.845 4.98-2.4 6.97l-3.865 5.372a4 4 0 0 0-.64 1.39l-.18.742a4.001 4.001 0 0 0 0 1.89l.148.606c.143.587.417 1.134.801 1.6l3.736 4.529a11.688 11.688 0 0 1 2.4 7.095v4.425H1.6v-4.329c0-2.62.902-5.159 2.555-7.191l3.617-4.547a4 4 0 0 0 .756-1.545l.156-.643a4 4 0 0 0 0-1.89l-.18-.741a4.001 4.001 0 0 0-.64-1.39L4 11.552a11.322 11.322 0 0 1-2.4-6.97V.8z" fill="url(#b)"/><path d="M0 .8h1.6m0 0h17.6M1.6.8v3.782c0 2.527.845 4.98 2.4 6.97M19.2.802h1.6m-1.6 0v3.781c0 2.527-.845 4.98-2.4 6.97m-12.8 0 3.865 5.372c.3.418.518.89.64 1.39l.18.742a4 4 0 0 1 0 1.89l-.157.643a4 4 0 0 1-.756 1.545L4.155 27.68A11.398 11.398 0 0 0 1.6 34.872v4.329M4 11.553h12.8m0 0-3.865 5.371a4 4 0 0 0-.64 1.39l-.18.742a4.001 4.001 0 0 0 0 1.89l.148.606c.143.587.417 1.134.801 1.6l3.736 4.529a11.688 11.688 0 0 1 2.4 7.095v4.425m-17.6 0H0m1.6 0h17.6m0 0h1.6" stroke="#171717" stroke-width="2"/></g><defs><linearGradient id="b" x1="10.4" y1=".801" x2="10.4" y2="39.201" gradientUnits="userSpaceOnUse"><stop offset=".295" stop-color="#171717"/><stop offset=".295"/><stop offset=".296" stop-color="#646C77" stop-opacity="0"/></linearGradient></defs></svg>