<svg width="40" height="50" viewBox="0 0 40 50" fill="none" xmlns="http://www.w3.org/2000/svg">
<g clip-path="url(#clip0_429_44)">
<path d="M17.4937 0.022167C12.1968 0.338741 7.73199 2.07011 4.46246 5.08733C3.28277 6.17383 2.21637 7.54565 1.38433 9.03862C0.657772 10.3518 0.294491 11.3172 0.130428 12.3919C-0.236759 14.8151 0.189022 18.5749 1.18512 21.6742L1.40387 22.362L1.70465 22.5965C1.86871 22.7255 2.1109 22.9678 2.24371 23.132C2.69683 23.6948 2.9234 24.152 3.46637 25.602C3.77887 26.4267 3.79058 26.4775 3.81012 26.8527C3.84527 27.6148 3.6734 28.3808 3.05621 30.2529C2.43121 32.1445 2.39215 32.3399 2.45465 33.2427C2.56402 34.8412 2.93902 35.4666 3.85699 35.5877C4.01715 35.6073 4.38824 35.6229 4.6773 35.6229C5.53277 35.6229 6.04058 35.4939 6.26324 35.2203C6.44293 35.0054 6.72027 34.9468 7.58746 34.9468C8.54058 34.9429 9.3023 35.064 10.0093 35.3337C10.8062 35.6307 11.2945 36.1388 11.3765 36.7446C11.4 36.9166 11.3882 36.9752 11.3023 37.1471C11.1617 37.4207 11.0757 37.8233 11.107 38.0343C11.1617 38.4095 11.4468 38.6323 11.9078 38.6675L12.1773 38.687L12.2554 38.5111C12.2945 38.4173 12.357 38.1555 12.3921 37.9288C12.5289 37.0416 12.6265 36.7954 12.9 36.6664C13.0289 36.6039 13.0601 36.6039 13.189 36.6508C13.3101 36.6977 13.3375 36.729 13.3804 36.897C13.4078 37.0064 13.4429 37.3426 13.4546 37.6474L13.4781 38.2024L13.3296 38.5072C13.2203 38.7339 13.1773 38.8785 13.1656 39.0739C13.1343 39.453 13.1734 39.496 13.65 39.6289C13.9507 39.711 14.1109 39.7852 14.3961 39.9689C14.9351 40.3207 15.0992 40.3793 15.482 40.3598C15.6539 40.352 15.6929 40.2386 15.7359 39.6328C15.814 38.5737 15.8648 38.3548 16.0601 38.2219C16.189 38.1399 16.3804 38.1399 16.4742 38.2258C16.6148 38.3509 16.6421 38.5346 16.6148 39.0896C16.5875 39.5742 16.5914 39.6211 16.6734 39.7774C16.9586 40.348 17.5406 40.5044 18.1617 40.1722C18.5796 39.9494 18.65 39.7852 18.7359 38.8512C18.8257 37.8975 18.8687 37.5614 18.9039 37.4872C18.9429 37.4168 18.9429 37.4168 19.0132 37.4872C19.0914 37.5692 19.2203 37.9366 19.2945 38.2845C19.3218 38.433 19.357 38.5033 19.3882 38.4916C19.4859 38.4564 19.7945 39.3671 19.8531 39.8712C19.8921 40.1878 19.9468 40.2621 20.2125 40.3402C20.6461 40.4653 21.3492 40.3285 21.6656 40.0549C21.9351 39.8243 21.9976 39.5898 21.8804 39.2459C21.8453 39.1404 21.8296 39.0466 21.8492 39.027C21.8687 39.0075 21.9781 39.027 22.0992 39.0739C22.2164 39.1169 22.3453 39.156 22.3843 39.156C22.4312 39.1599 22.4937 39.2342 22.5562 39.3553C22.6109 39.4648 22.7554 39.6485 22.8765 39.7696C23.1421 40.0354 23.4781 40.18 23.8257 40.18C24.0171 40.18 24.064 40.1644 24.1656 40.0666C24.3843 39.8556 24.4156 39.6914 24.4273 38.6948C24.4351 37.9093 24.4468 37.7647 24.5171 37.538C24.65 37.1198 24.9351 36.7993 25.1812 36.7993C25.3257 36.7993 25.5132 37.0299 25.5914 37.3035C25.6265 37.4364 25.6734 37.7842 25.6929 38.0812C25.7515 38.984 25.9078 39.2928 26.3765 39.4374C27.0093 39.6328 27.9625 38.9254 28.0601 38.1907C28.0796 38.0656 28.0484 37.8936 27.9429 37.5145C27.7789 36.9166 27.7711 36.7329 27.8961 36.4671C28.3336 35.5604 29.5796 34.8295 31.1773 34.5481C31.4078 34.509 31.5523 34.5051 31.7281 34.5325C32.0445 34.5833 32.1304 34.6146 32.8414 34.9311C33.1734 35.0836 33.5836 35.2399 33.7554 35.2829C34.15 35.3845 34.314 35.3532 34.9859 35.0601C35.8179 34.6927 36.1773 34.4426 36.3218 34.1221C36.4273 33.8954 36.4156 33.786 36.2203 33.2232C35.9546 32.4533 35.6343 31.3746 35.482 30.7414C35.232 29.6901 35.2086 29.479 35.2046 28.4746C35.2046 27.6695 35.2164 27.5093 35.2906 27.1653C35.4195 26.5791 35.6226 25.9616 35.8218 25.5434C35.9195 25.3402 36.1148 24.8204 36.2554 24.3943C36.4 23.9644 36.5757 23.5033 36.65 23.3704C36.857 23.003 37.1343 22.7255 37.6226 22.4011C38.6382 21.725 39.2398 20.7987 39.6187 19.3175C40.0836 17.504 40.107 15.0418 39.6929 12.3333C39.5562 11.4383 39.3961 10.77 39.232 10.387C37.9078 7.30724 35.1851 4.69258 31.3179 2.78143C28.3101 1.29627 25.0914 0.424721 21.3375 0.0807913C20.5523 0.00653434 18.3023 -0.0247347 17.4937 0.022167ZM11.3961 19.6067C12.0093 19.6614 12.4468 19.7396 13.0093 19.8959C13.6539 20.0718 14.1109 20.275 14.814 20.6971C16.15 21.5022 16.8453 22.1119 17.1656 22.7607C17.2945 23.0186 17.3101 23.0772 17.3062 23.3469C17.3023 23.9136 17.0445 24.3983 16.2789 25.2659C15.4351 26.2312 14.2867 26.9152 12.9468 27.2591C12.3765 27.4076 11.8414 27.4663 11.1031 27.4624C9.59137 27.4585 8.22027 27.1341 7.4234 26.5947C6.29058 25.8248 5.65387 24.4061 5.77496 22.9014C5.90387 21.2599 6.81012 20.0405 8.18512 19.6731C8.66168 19.548 10.3414 19.5129 11.3961 19.6067ZM30.6539 19.6106C31.0445 19.6575 31.4937 19.8099 31.814 19.9975C32.1461 20.1929 32.6695 20.7323 32.8882 21.1114C33.1109 21.4905 33.3257 22.1158 33.3921 22.5692C33.4625 23.0616 33.4195 23.8706 33.2984 24.3396C32.939 25.7193 31.9976 26.7002 30.6656 27.0872C28.9664 27.5835 27.1187 27.5835 25.6539 27.0833C25.1851 26.923 24.3765 26.5048 23.9781 26.2195C23.3375 25.7583 22.5836 24.961 22.2164 24.3553C21.5367 23.2336 21.8687 22.4207 23.4859 21.2638C24.8023 20.3258 25.8765 19.8568 27.1656 19.6614C28.0054 19.5324 29.8375 19.5051 30.6539 19.6106ZM20.3101 26.1726C20.3921 26.1922 20.5015 26.2508 20.5562 26.2977C20.7437 26.4657 22.8726 30.2099 22.982 30.5656C23.0796 30.886 23.0914 31.2065 23.0093 31.3668C22.8101 31.7537 22.2086 31.8201 21.6031 31.5231C21.3453 31.398 21.2515 31.2769 20.9859 30.7414C20.9273 30.6242 20.8336 30.4679 20.7828 30.4014C20.5562 30.1083 19.9586 29.9637 19.5054 30.0927C19.2125 30.1786 19.0054 30.3858 18.7828 30.8157C18.482 31.3941 18.1851 31.6286 17.6421 31.7146C17.3648 31.7615 17.0523 31.7146 16.9039 31.6091C16.7632 31.5075 16.6695 31.2964 16.6695 31.0893C16.6695 30.6906 16.8414 30.3272 17.9 28.4746C19.0796 26.4149 19.189 26.2508 19.4546 26.1726C19.6265 26.1218 20.1343 26.1218 20.3101 26.1726Z" fill="#102A43"/>
<path d="M8.57952 35.9396C8.45062 36.0138 8.34124 36.3656 8.3139 36.7994C8.2553 37.7452 8.41155 38.9959 8.72405 40.0824C8.93499 40.8171 8.9389 40.8719 8.97405 42.6228C8.99359 43.5373 9.02484 44.4401 9.04827 44.6356C9.21234 45.9331 9.61077 46.5076 10.5288 46.746C10.6655 46.7812 11.0014 46.832 11.2709 46.8594L11.767 46.9063L13.31 47.4964C14.1577 47.8208 14.9506 48.1061 15.0678 48.1335C15.7866 48.3015 16.5756 48.6611 17.4311 49.2122C18.103 49.646 18.392 49.7867 18.8139 49.8961C19.4272 50.0525 20.685 50.029 21.3881 49.8492C21.5522 49.8062 21.8491 49.6851 22.0561 49.5717C22.7436 49.1965 22.9311 49.1145 23.2124 49.0715C23.892 48.962 24.0092 48.9386 24.2866 48.8487C24.8764 48.6572 25.4467 48.2234 25.7983 47.6879C26.017 47.3557 27.06 46.1363 27.3022 45.9292C27.6577 45.6244 28.0483 45.4563 28.7827 45.3C29.1577 45.2218 29.2397 45.1866 29.6616 44.9287C30.1733 44.6199 30.4233 44.405 30.5483 44.1666C30.6616 43.9555 30.6577 43.5295 30.5405 43.1309C30.353 42.4782 30.3295 42.1655 30.3022 39.6329C30.2749 37.1433 30.267 37.073 30.0991 36.7408C29.8686 36.2991 29.478 36.3382 29.1538 36.8346C28.9584 37.1316 28.8647 37.456 28.5483 38.9607C28.3959 39.6876 28.2397 40.3403 28.2084 40.4068C27.9272 40.9578 27.4936 41.122 26.9975 40.8601C26.8725 40.7937 26.7045 40.7077 26.6225 40.6647C26.2944 40.4967 25.8764 40.3833 25.5483 40.3794C25.2553 40.3755 25.2163 40.3833 25.06 40.4928C24.9467 40.5709 24.8569 40.6803 24.7827 40.8289C24.6694 41.0555 24.5639 41.5363 24.56 41.8372C24.56 41.9935 24.5522 42.0053 24.4741 41.9857C24.4233 41.974 24.2514 41.9505 24.0913 41.9388C23.6889 41.9036 23.6108 41.8646 23.4194 41.6105C23.3295 41.4894 23.2202 41.3604 23.1733 41.3252C23.06 41.2275 22.5717 41.122 22.3999 41.1533C22.2163 41.1884 22.0522 41.3565 21.9663 41.5949C21.8295 41.9779 21.8491 41.9584 21.6225 41.9584C21.5092 41.9584 21.2983 41.9701 21.1577 41.9818L20.8999 42.0092L20.8491 41.7981C20.7241 41.2822 20.6655 41.2236 20.3334 41.2979C20.0639 41.3565 19.9506 41.4425 19.9506 41.5793C19.9506 41.759 19.8647 41.8177 19.5678 41.8333L19.2983 41.8489L18.9858 41.5324C18.2749 40.8093 17.5834 40.8054 17.1577 41.5206C17.0327 41.7317 17.0639 41.72 16.5249 41.7864L16.3256 41.8098L16.2475 41.6613C16.1459 41.462 15.9077 41.2353 15.7241 41.1572C15.2944 40.9813 14.9467 41.2353 14.8256 41.8177L14.7749 42.0483L14.4624 42.0209C14.2905 42.0092 14.0952 41.9974 14.0249 41.9974C13.9155 41.9974 13.8959 41.9779 13.8452 41.8294C13.81 41.7395 13.7749 41.5167 13.7631 41.3369C13.7514 41.1415 13.7163 40.9735 13.6811 40.9188C13.5874 40.7781 13.3374 40.6686 13.0053 40.6295C12.8413 40.61 12.5639 40.5748 12.392 40.5553L12.0795 40.5162L11.9389 40.6686C11.7592 40.8679 11.6342 40.8953 11.4584 40.7898C11.3256 40.7077 10.4702 39.758 10.3295 39.5352C10.2358 39.3867 10.1264 38.9216 10.0092 38.1673C9.86468 37.2137 9.7553 36.9127 9.3764 36.3773C9.09515 35.9787 8.79437 35.8145 8.57952 35.9396Z" fill="#102A43"/>
</g>
<defs>
<clipPath id="clip0_429_44">
<rect width="40" height="50" fill="white"/>
</clipPath>
</defs>
</svg>
