<svg width="32" height="40" fill="none" xmlns="http://www.w3.org/2000/svg"><mask id="a" style="mask-type:luminance" maskUnits="userSpaceOnUse" x="0" y="0" width="32" height="40"><path d="M32 0H0v40h32V0z" fill="#fff"/></mask><g mask="url(#a)" fill="#171717"><path d="M13.995.018C9.757.27 6.185 1.656 3.57 4.07c-.944.87-1.797 1.967-2.463 3.16C.527 8.282.236 9.055.104 9.915c-.293 1.938.047 4.946.844 7.425l.175.55.24.188c.132.103.326.297.432.429.362.45.544.816.978 1.976.25.66.26.7.275 1 .028.61-.11 1.223-.603 2.72-.5 1.514-.531 1.67-.481 2.392.087 1.279.387 1.78 1.122 1.876.128.016.425.028.656.028.684 0 1.09-.103 1.269-.322.143-.172.365-.219 1.059-.219.762-.003 1.372.094 1.937.31.638.238 1.029.644 1.094 1.129.019.137.01.184-.06.322-.112.219-.18.54-.155.71.043.3.271.478.64.506l.216.016.062-.141c.032-.075.082-.285.11-.466.11-.71.187-.907.406-1.01.103-.05.128-.05.231-.012.097.037.119.062.153.197.022.087.05.356.06.6l.019.444-.12.244a1.096 1.096 0 0 0-.13.453c-.026.303.006.338.387.444.24.066.369.125.597.272.431.282.562.328.869.313.137-.006.168-.097.203-.582.062-.847.103-1.022.26-1.128.102-.066.255-.066.33.003.113.1.135.247.113.69-.022.388-.019.426.047.55.228.457.694.582 1.19.317.335-.178.391-.31.46-1.057.072-.763.106-1.032.134-1.091.031-.057.031-.057.088 0 .062.065.165.36.225.638.021.118.05.175.075.165.078-.028.325.7.372 1.104.03.253.074.313.287.375.347.1.91-.01 1.162-.228.216-.185.266-.372.172-.647-.028-.085-.04-.16-.025-.175.016-.016.104 0 .2.037.094.035.197.066.228.066.038.003.088.062.138.16.044.087.16.234.256.33.213.213.482.329.76.329.153 0 .19-.012.271-.09.175-.17.2-.3.21-1.098.006-.629.015-.744.072-.926.106-.334.334-.59.531-.59.116 0 .266.184.328.403.028.106.066.384.081.622.047.722.172.97.547 1.085.506.156 1.269-.41 1.347-.997.016-.1-.01-.238-.094-.541-.13-.479-.137-.626-.037-.838.35-.726 1.347-1.31 2.625-1.535.184-.032.3-.035.44-.013.254.04.322.066.891.319.266.122.594.247.731.281.316.082.447.057.985-.178.665-.294.953-.494 1.068-.75.085-.182.076-.27-.08-.72a25.612 25.612 0 0 1-.591-1.985c-.2-.84-.22-1.01-.222-1.813 0-.644.01-.773.069-1.048a6.52 6.52 0 0 1 .424-1.297c.079-.163.235-.579.347-.92.116-.343.257-.712.316-.819.166-.294.387-.516.778-.775.813-.541 1.294-1.282 1.597-2.467.372-1.45.39-3.42.06-5.587-.11-.716-.238-1.251-.37-1.557-1.059-2.464-3.237-4.556-6.33-6.085C22.647 1.037 20.072.34 17.07.065c-.628-.06-2.428-.085-3.075-.047zM9.117 15.685c.49.044.84.107 1.29.232.516.14.882.303 1.444.64 1.069.645 1.625 1.133 1.881 1.652.104.206.116.253.113.468-.003.454-.21.842-.822 1.536-.675.772-1.594 1.32-2.666 1.594-.456.12-.884.166-1.475.163-1.209-.003-2.306-.263-2.943-.694-.907-.616-1.416-1.751-1.319-2.955.103-1.313.828-2.289 1.928-2.583.381-.1 1.725-.128 2.569-.053zm15.406.003c.313.038.672.16.928.31.266.156.685.588.86.891.178.303.35.804.403 1.166a4.383 4.383 0 0 1-.075 1.417c-.288 1.103-1.04 1.888-2.107 2.198-1.359.397-2.837.397-4.009-.003a6.633 6.633 0 0 1-1.34-.691c-.513-.37-1.116-1.007-1.41-1.492-.544-.897-.278-1.547 1.016-2.473 1.053-.75 1.912-1.126 2.944-1.282.671-.103 2.137-.125 2.79-.04zm-8.275 5.25a.558.558 0 0 1 .197.1c.15.135 1.853 3.13 1.94 3.415.079.256.088.512.022.64-.159.31-.64.363-1.125.125-.206-.1-.28-.197-.493-.625a2.152 2.152 0 0 0-.163-.272c-.181-.234-.66-.35-1.022-.247-.234.069-.4.235-.578.579-.24.462-.478.65-.912.719-.222.037-.472 0-.59-.085-.113-.081-.188-.25-.188-.416 0-.319.137-.61.984-2.091.944-1.648 1.031-1.78 1.244-1.842.137-.04.543-.04.684 0z"/><path d="M6.864 28.752c-.103.059-.19.34-.213.688-.047.756.078 1.757.328 2.626.17.588.172.631.2 2.032.016.732.041 1.454.06 1.61.131 1.038.45 1.498 1.184 1.689.11.028.378.069.594.09l.397.038 1.234.472c.678.26 1.313.488 1.406.51.575.134 1.207.422 1.891.863.538.347.769.46 1.106.547.491.125 1.497.106 2.06-.038.131-.034.369-.13.534-.222.55-.3.7-.365.925-.4.544-.087.638-.106.86-.178a2.38 2.38 0 0 0 1.209-.929c.175-.265 1.01-1.241 1.203-1.407.284-.244.597-.378 1.184-.503.3-.063.366-.09.704-.297.409-.247.609-.419.709-.61.09-.169.087-.51-.006-.828-.15-.523-.17-.773-.191-2.799-.022-1.991-.028-2.048-.163-2.313-.184-.354-.496-.323-.756.075-.156.237-.231.497-.484 1.7-.122.582-.247 1.104-.272 1.157-.225.441-.572.573-.969.363l-.3-.156a2.099 2.099 0 0 0-.86-.228c-.234-.004-.265.003-.39.09a.684.684 0 0 0-.222.27c-.09.18-.175.565-.178.806 0 .125-.006.134-.069.119a2.885 2.885 0 0 0-.306-.038c-.322-.028-.384-.06-.537-.263-.072-.096-.16-.2-.197-.228-.09-.078-.481-.162-.619-.137-.147.028-.278.162-.347.353-.11.306-.093.29-.275.29-.09 0-.26.01-.372.02l-.206.021-.04-.169c-.1-.412-.147-.46-.413-.4-.216.047-.306.116-.306.225 0 .144-.069.191-.307.204l-.215.012-.25-.253c-.569-.579-1.122-.582-1.463-.01-.1.17-.075.16-.506.213l-.16.019-.062-.119a.998.998 0 0 0-.418-.403c-.344-.141-.622.062-.72.528l-.04.185-.25-.022a7.892 7.892 0 0 0-.35-.02c-.087 0-.103-.015-.144-.133a1.729 1.729 0 0 1-.065-.395c-.01-.156-.038-.29-.066-.334-.075-.112-.275-.2-.54-.231l-.491-.06-.25-.031-.113.122c-.143.16-.243.181-.384.097-.106-.066-.79-.826-.903-1.004-.075-.119-.163-.49-.256-1.094-.116-.763-.204-1.004-.507-1.432-.225-.32-.465-.45-.637-.35z"/></g></svg>